<svg version="1.1" id="Layer_1" xmlns="http://www.w3.org/2000/svg" xmlns:xlink="http://www.w3.org/1999/xlink" x="0px" y="0px"
	 width="100%" viewBox="0 0 1024 1024" enable-background="new 0 0 1024 1024" xml:space="preserve">
<path fill="#000000" opacity="1.000000" stroke="none" 
	d="
M442.303162,258.648926 
	C444.802582,261.891022 447.709930,261.252838 450.690430,260.428986 
	C460.794281,257.636200 470.953857,255.031250 480.991486,252.019241 
	C485.101471,250.785934 488.649200,250.973679 492.443665,253.000351 
	C498.022064,255.979874 503.886688,258.421661 509.484558,261.367615 
	C512.171936,262.781891 514.449890,262.584076 517.012451,261.286499 
	C522.511230,258.502289 528.206543,256.084045 533.582520,253.087372 
	C537.364502,250.979263 540.882507,250.713074 544.991211,251.920334 
	C554.728821,254.781555 564.625427,257.105865 574.343933,260.026184 
	C578.702637,261.335968 581.814209,260.454163 585.199280,257.487762 
	C606.247742,239.042679 627.457825,220.782013 648.629456,202.477676 
	C649.856506,201.416809 650.869873,199.968353 653.078552,199.788315 
	C655.307251,203.606979 655.808838,208.119415 656.974060,212.341507 
	C662.858826,233.665329 668.416992,255.079330 674.312134,276.400208 
	C676.719177,285.105530 674.476440,293.611633 673.914734,302.180237 
	C673.338562,310.969788 672.219421,319.723114 671.384583,328.496765 
	C671.177185,330.676361 671.044983,333.017822 673.204651,334.375702 
	C683.416687,340.796265 686.714783,351.713074 691.125671,361.867828 
	C701.610352,386.005219 712.002380,410.182953 722.372437,434.369873 
	C723.393188,436.750549 724.802185,439.067932 724.776062,442.697205 
	C714.236450,438.319946 704.092651,434.107086 692.566345,429.320038 
	C698.157593,455.589478 703.458313,480.494019 708.741882,505.318115 
	C705.874451,506.435303 704.452026,504.942749 702.937988,504.144501 
	C695.864258,500.415009 688.863220,496.548065 681.809814,492.779633 
	C677.439697,490.444855 676.509827,490.864105 675.431702,495.759918 
	C673.321838,505.341400 671.256531,514.933044 669.248535,524.536377 
	C668.548950,527.882690 667.301270,530.752319 664.649719,533.134399 
	C648.526306,547.618835 633.394531,563.129883 618.029907,578.399902 
	C616.919189,579.503784 616.065918,581.173401 613.486877,580.957397 
	C612.064392,572.232605 613.638245,563.265503 612.523682,554.489014 
	C610.480286,554.121155 609.571228,555.503174 608.498962,556.437439 
	C602.972595,561.252319 597.877502,566.678589 591.890747,570.820129 
	C583.801636,576.416199 582.458435,584.992004 580.533569,593.293274 
	C579.310913,598.566528 576.933716,602.034912 572.136353,604.748901 
	C553.868225,615.083374 535.790222,625.757324 517.741455,636.473206 
	C514.448547,638.428162 511.831757,638.421021 508.544922,636.477722 
	C490.187866,625.624268 471.751892,614.902954 453.267914,604.266663 
	C449.389252,602.034729 446.856964,599.178223 446.205566,594.662292 
	C444.488617,582.759583 439.048248,573.231018 428.922516,566.279724 
	C423.665131,562.670593 419.718658,557.311584 413.171692,552.916809 
	C413.171692,563.064880 413.171692,572.039185 413.171692,580.854126 
	C410.449554,581.371399 409.680939,579.807556 408.678436,578.836975 
	C393.116852,563.771729 377.641449,548.617065 362.010803,533.624023 
	C359.204468,530.932190 357.675903,527.861694 356.866577,524.195312 
	C354.823395,514.939453 352.728394,505.694702 350.589569,496.460480 
	C349.415955,491.393494 348.367371,490.859924 343.834625,493.209167 
	C337.179016,496.658661 330.621735,500.297577 323.974884,503.764404 
	C322.260834,504.658417 320.666718,506.096436 317.789215,505.571686 
	C321.881561,480.587219 328.382294,456.092590 333.258118,429.838715 
	C321.729248,433.925720 311.863495,438.427673 302.088898,442.707733 
	C300.394653,440.621338 301.683319,439.313934 302.208679,438.089203 
	C315.340210,407.475525 328.550781,376.895782 341.678314,346.280396 
	C343.414001,342.232574 346.611877,339.521149 349.929138,337.105499 
	C354.097473,334.070038 355.226196,330.356964 354.648499,325.460632 
	C353.459961,315.387329 353.003693,305.211060 351.434357,295.204437 
	C350.102814,286.714050 351.157623,278.744263 353.414398,270.603058 
	C359.458282,248.800293 365.165436,226.904312 371.083649,205.066315 
	C371.541931,203.375214 371.503845,201.351654 374.088013,199.558212 
	C396.610840,219.076187 419.318054,238.753952 442.303162,258.648926 
M555.635742,541.860046 
	C561.053284,532.498413 566.439941,523.118713 571.910950,513.788391 
	C573.220215,511.555542 573.810974,509.263397 573.802979,506.679688 
	C573.772522,496.850891 573.839966,487.021729 573.896790,477.192810 
	C573.911438,474.659485 573.547546,472.280273 572.315857,469.978882 
	C565.087769,456.473053 557.992188,442.896210 550.734131,429.406677 
	C547.988525,424.303741 546.914612,424.361572 543.054932,428.889984 
	C540.332031,432.084808 538.542847,436.140656 533.699585,439.175781 
	C533.699585,431.179718 533.391602,424.097198 533.804016,417.056885 
	C534.096436,412.065338 531.956482,409.741211 528.025940,406.797424 
	C517.695374,399.060486 508.450592,398.914825 498.111572,406.754120 
	C494.285126,409.655457 491.854767,411.771942 492.187134,416.892395 
	C492.663818,424.236023 492.308685,431.633636 492.308685,440.282745 
	C486.848511,434.713715 483.923920,428.786682 479.070190,424.526184 
	C476.843658,426.120697 475.935028,428.139008 474.945099,430.013458 
	C467.793152,443.555847 460.702881,457.130890 453.636322,470.718109 
	C453.036011,471.872437 452.374298,473.191467 452.376312,474.432953 
	C452.406586,493.167389 448.975677,512.495850 462.837250,528.713501 
	C466.236237,532.690247 468.184540,537.900330 470.856842,542.510254 
	C471.401947,543.450623 471.695282,544.752380 473.293823,544.874878 
	C474.837555,542.670898 475.302460,540.099426 475.719604,537.484497 
	C477.756683,524.714478 477.770721,524.718201 490.212158,520.947144 
	C491.961884,520.416748 493.710938,519.882263 495.448334,519.313293 
	C497.970642,518.487183 500.604614,517.968750 500.777679,514.363647 
	C500.956482,510.638580 500.638916,507.660217 496.668640,505.722870 
	C492.196594,503.540771 488.142303,500.518890 483.768677,498.112427 
	C481.088226,496.637512 479.565277,494.642761 478.730957,491.709747 
	C474.869354,478.135315 474.918671,478.254883 484.873169,468.334656 
	C488.190338,465.028870 491.656586,463.556976 496.366943,463.684601 
	C507.021423,463.973297 517.700439,464.091644 528.346191,463.678223 
	C534.166260,463.452209 537.981812,465.809082 542.434998,469.305084 
	C550.236023,475.429321 551.103333,482.079742 547.784241,490.617188 
	C546.459717,494.024048 545.097412,496.783142 541.668213,498.587067 
	C536.962585,501.062408 532.562378,504.113495 527.991943,506.852234 
	C524.741882,508.799652 525.378235,511.938110 525.403809,514.883545 
	C525.428284,517.708069 527.680359,518.265015 529.750732,518.941528 
	C534.337219,520.440308 538.882507,522.097839 543.538269,523.339844 
	C546.493652,524.128235 547.796326,525.573425 548.498657,528.648560 
	C549.728699,534.034363 549.994934,539.786438 553.227905,545.144409 
	C554.137390,543.947327 554.719421,543.181152 555.635742,541.860046 
M615.311096,297.888519 
	C622.046692,280.372894 630.461609,263.515350 637.059570,244.405991 
	C634.944519,245.876022 634.068420,246.362061 633.337280,247.011307 
	C618.781860,259.936340 604.252075,272.890259 589.689514,285.807251 
	C587.924500,287.372803 587.254456,289.229614 587.284729,291.548676 
	C587.360779,297.374298 587.592468,303.219177 587.225037,309.022369 
	C586.941956,313.491302 588.640991,316.489227 591.857788,319.371460 
	C610.822937,336.363831 629.647095,353.513519 648.540588,370.586029 
	C658.765137,379.825134 669.033081,389.016174 680.213074,399.066376 
	C679.757202,397.010132 679.702026,396.191162 679.398621,395.477753 
	C674.450928,383.843719 669.456177,372.229736 664.513062,360.593781 
	C663.504944,358.220703 661.842468,356.417267 659.977173,354.728882 
	C646.403809,342.443176 632.755432,330.238647 619.298706,317.826447 
	C608.520020,307.884491 609.718811,312.282410 615.311096,297.888519 
M389.386688,359.883636 
	C404.330841,346.352325 419.229370,332.770020 434.255524,319.330383 
	C437.470795,316.454620 439.144012,313.375397 438.867981,308.925354 
	C438.528168,303.446991 438.629425,297.923737 438.863281,292.433624 
	C439.012756,288.924500 437.738953,286.477112 435.127899,284.235840 
	C427.163300,277.399231 419.428162,270.294861 411.446533,263.478729 
	C404.340271,257.410126 397.784515,250.654221 389.206512,244.797287 
	C390.174957,247.669586 390.696869,249.585464 391.453247,251.403793 
	C398.871765,269.238068 406.263367,287.084229 413.831238,304.855194 
	C415.357361,308.438904 415.022919,310.799408 411.919342,313.494873 
	C400.602081,323.323975 389.625153,333.543640 378.381256,343.458862 
	C369.240936,351.519073 360.310638,359.457947 356.643768,371.910522 
	C354.450439,379.358795 350.587708,386.313141 347.521271,393.509064 
	C347.043579,394.630005 345.816284,395.716644 347.511047,397.777863 
	C361.327576,385.281586 375.100006,372.825226 389.386688,359.883636 
M463.250977,560.233337 
	C461.173157,561.452209 462.349579,563.181030 462.725952,564.610352 
	C464.078888,569.748169 465.754730,574.804016 467.006592,579.964111 
	C467.895844,583.629639 469.868652,586.000427 473.163422,587.857422 
	C485.336273,594.718018 497.440857,601.707031 509.415161,608.907166 
	C512.256104,610.615417 514.307007,610.650940 517.109680,608.965027 
	C529.512451,601.504578 542.032471,594.238159 554.544189,586.960327 
	C556.502869,585.820923 558.109619,584.471191 558.713257,582.245667 
	C560.870361,574.291809 562.979187,566.324951 565.106262,558.362976 
	C564.466431,557.837158 563.826538,557.311401 563.186646,556.785583 
	C558.947754,562.051025 554.708862,567.316528 549.868713,573.328796 
	C546.918030,568.087463 544.918030,564.499268 542.878784,560.933533 
	C542.239868,559.816406 541.775208,558.276428 540.068542,558.586670 
	C538.402466,558.889465 538.486877,560.470642 538.152649,561.736023 
	C537.006714,566.073914 535.796570,570.394775 534.643066,574.730713 
	C534.205444,576.375977 533.750183,577.973022 531.882019,578.566467 
	C522.379089,581.584656 513.543457,585.844910 502.613007,581.909058 
	C494.649506,579.041687 490.405304,575.406128 489.429840,567.148193 
	C489.054718,563.972473 488.768860,560.246887 485.475769,557.697815 
	C481.710052,562.002686 480.713470,567.733887 476.784485,572.171143 
	C472.325043,568.100098 468.080658,564.225342 463.250977,560.233337 
M594.634705,349.875580 
	C589.690430,345.424866 584.678528,341.046112 579.833130,336.490234 
	C577.716492,334.500061 575.879761,333.899780 573.287292,335.704224 
	C562.509033,343.206635 551.644043,350.584320 540.817505,358.017395 
	C539.587402,358.861938 538.073669,359.623657 537.783752,361.188141 
	C536.545349,367.871063 535.076050,374.544556 534.430481,381.292236 
	C534.007568,385.713623 538.541687,386.863953 541.410950,388.915222 
	C543.876343,390.677795 545.752747,388.994843 547.634949,387.555725 
	C554.635742,382.203247 561.944580,377.207794 568.579224,371.436157 
	C574.481018,366.301971 580.847351,363.119385 588.668579,362.906677 
	C590.329163,362.861542 592.065674,363.008026 593.630493,362.573700 
	C597.107422,361.608856 601.207275,362.793579 604.409546,359.859772 
	C601.804749,355.852448 598.205200,353.365906 594.634705,349.875580 
M426.862030,361.720428 
	C430.333282,362.085388 433.800903,362.490143 437.276550,362.806915 
	C444.342407,363.451050 450.703857,365.302490 456.316254,370.239899 
	C463.175110,376.273865 470.731750,381.519623 478.047089,387.025970 
	C479.703522,388.272736 481.188751,390.111633 483.749573,389.431091 
	C488.874786,388.069092 492.352783,383.227448 491.587769,377.835693 
	C490.888519,372.907532 489.684204,368.053070 488.863068,363.139282 
	C488.500977,360.972382 487.387177,359.554932 485.649567,358.359039 
	C474.676605,350.806915 463.729218,343.217590 452.784210,335.625000 
	C450.989532,334.380066 449.275574,333.778595 447.393860,335.506348 
	C439.668640,342.599762 431.865417,349.609100 424.198029,356.764130 
	C421.207794,359.554535 421.945709,361.347473 426.862030,361.720428 
M545.859253,321.344513 
	C551.098877,317.819336 556.290161,314.218964 561.601379,310.805145 
	C563.800171,309.391846 564.760742,307.662567 564.713501,305.056213 
	C564.602051,298.907898 564.669312,292.756348 564.666748,286.606110 
	C564.665955,284.706635 564.521851,282.557922 562.428528,282.042572 
	C552.651306,279.635406 543.244995,272.847260 532.619263,280.101471 
	C529.690674,282.100800 528.008057,283.711487 528.062195,287.409180 
	C528.259094,300.870667 528.158142,314.336365 528.221375,327.800201 
	C528.227905,329.192719 527.683289,330.842163 529.808228,332.124695 
	C534.840088,328.748535 540.052002,325.251556 545.859253,321.344513 
M474.137177,278.759277 
	C471.891083,279.378174 469.669983,280.117493 467.393463,280.589600 
	C463.274597,281.443848 461.678833,283.782166 461.904755,288.024170 
	C462.205658,293.675171 462.075562,299.354614 461.976257,305.019135 
	C461.927704,307.787994 462.903259,309.624207 465.284393,311.189667 
	C474.748749,317.411713 484.077240,323.840149 493.481171,330.154755 
	C494.530304,330.859283 495.598145,331.908203 497.172028,331.028748 
	C497.354950,330.640808 497.727112,330.207947 497.745758,329.760345 
	C498.369873,314.770844 498.050781,299.778900 497.832458,284.786957 
	C497.800934,282.622559 496.425812,281.666656 494.725250,280.700958 
	C488.409302,277.114258 481.984955,275.025421 474.137177,278.759277 
M602.384705,418.868988 
	C600.321045,423.831665 596.693604,425.793732 591.306274,425.203705 
	C587.682434,424.806824 583.984375,424.987427 580.323120,425.070068 
	C578.099670,425.120209 575.652405,424.329681 573.378479,426.635529 
	C576.247192,433.970001 580.671265,440.629700 584.233704,447.703217 
	C587.081665,453.357910 587.795532,453.483582 592.653198,449.683411 
	C603.406128,441.271393 614.034180,432.699463 624.805542,424.311371 
	C627.040833,422.570587 627.735352,420.562866 627.707764,417.865051 
	C627.607178,408.039948 627.687561,398.213074 627.624634,388.387360 
	C627.613708,386.687775 628.107178,384.711639 625.586792,383.122864 
	C617.951477,394.885956 610.367798,406.569550 602.384705,418.868988 
M401.841736,384.946899 
	C401.260437,384.176575 400.888306,383.128113 399.622467,383.255646 
	C398.532532,384.058105 398.460785,385.266663 398.475586,386.402710 
	C398.620575,397.544922 398.829590,408.686340 398.973877,419.828583 
	C399.006165,422.322021 400.578156,423.663025 402.329681,425.033478 
	C408.881042,430.159546 415.360535,435.377502 421.913513,440.501495 
	C427.242432,444.668365 432.637878,448.750122 438.606293,453.332153 
	C443.780731,443.815369 449.093079,435.310150 453.283966,425.437592 
	C446.868530,424.570312 441.043671,424.763123 435.358032,425.285431 
	C429.537933,425.820099 426.316559,423.614075 423.403717,418.747314 
	C416.656891,407.474762 409.314667,396.558594 401.841736,384.946899 
M409.406769,506.233948 
	C409.576080,520.001770 420.512543,525.921997 429.735596,534.488220 
	C425.587036,514.733765 420.735779,496.203064 418.080566,477.362793 
	C416.346832,465.060699 407.500763,460.851624 398.676849,455.263763 
	C402.207031,471.976410 405.737183,488.689026 409.406769,506.233948 
M626.072876,461.090546 
	C626.488708,459.504272 627.369629,457.697479 625.355408,456.683105 
	C623.700378,455.849670 622.637939,457.425446 621.471802,458.277557 
	C620.129028,459.258698 618.843689,460.318329 617.500671,461.298950 
	C613.720947,464.058624 610.518494,466.859589 609.504578,472.067841 
	C606.111328,489.498566 602.080933,506.804474 598.558838,524.211670 
	C598.016968,526.889771 596.803650,529.768066 597.665039,533.016357 
	C607.593506,525.496948 615.889343,518.169678 617.396179,504.813721 
	C619.026489,490.364319 622.961670,476.174988 626.072876,461.090546 
M657.717896,411.794891 
	C655.447205,410.311340 653.857971,407.806000 650.275024,406.676331 
	C650.275024,413.861389 649.979370,420.475433 650.367188,427.049164 
	C650.686218,432.457550 649.601257,436.697174 644.733337,439.785034 
	C641.165466,442.048279 642.340576,444.363068 645.516357,446.126801 
	C652.204163,449.840942 658.875122,453.585754 665.586365,457.257019 
	C668.301270,458.742126 670.850037,460.657928 673.945251,461.176483 
	C675.029907,459.680786 674.467041,458.415710 674.176025,457.132782 
	C672.229675,448.551392 670.175354,439.991669 668.409424,431.373047 
	C666.889954,423.957581 665.271729,416.703400 657.717896,411.794891 
M376.799042,448.263916 
	C379.257080,446.433075 382.595978,445.824219 384.582367,442.869537 
	C383.670258,441.894257 383.044586,440.799835 382.102386,440.287628 
	C376.494568,437.239044 375.227875,432.441437 375.602905,426.445740 
	C376.003571,420.040070 375.693237,413.589935 375.693237,405.868896 
	C371.884430,409.138794 369.269135,411.637970 366.394165,413.790253 
	C362.491577,416.711884 360.096863,420.244843 359.218262,425.203430 
	C357.830383,433.036102 355.833496,440.761902 354.053894,448.523651 
	C353.104767,452.663239 351.723663,456.725861 351.666229,462.103821 
	C360.280151,457.371979 368.224945,453.007690 376.799042,448.263916 
M567.901428,403.720978 
	C573.052856,403.748169 578.204346,403.771423 583.355774,403.804626 
	C585.231628,403.816711 587.068115,403.688751 588.216797,401.912201 
	C591.191345,397.311951 594.238037,392.753235 597.044373,388.051666 
	C598.337524,385.885040 597.418518,383.551147 594.948425,383.763428 
	C590.431824,384.151581 585.643616,383.796448 581.716919,387.152252 
	C577.807739,390.493225 573.481506,393.343475 569.532227,396.641327 
	C567.098999,398.673157 564.122070,400.216217 561.752136,403.723145 
	C564.130554,403.723145 565.586914,403.723145 567.901428,403.720978 
M436.633240,399.991455 
	C437.535065,401.363861 438.195892,403.324402 439.969147,403.450165 
	C447.293732,403.969696 454.632050,404.141418 462.967346,403.032867 
	C459.378418,398.101044 455.049347,395.585327 451.294128,392.527130 
	C445.929474,388.158295 440.688965,383.387238 432.939240,383.815063 
	C431.468109,383.896240 429.927643,383.236664 428.887451,384.719788 
	C427.804260,386.264252 428.887115,387.589600 429.639130,388.824158 
	C431.794495,392.362427 434.038055,395.847015 436.633240,399.991455 
z"/>
<path fill="#000000" opacity="1.000000" stroke="none" 
	d="
M326.059875,726.183960 
	C331.089233,737.582214 330.699432,749.029175 327.107605,760.093384 
	C324.571838,767.904602 317.452515,771.138916 309.587036,772.305176 
	C302.467133,773.360718 295.291260,772.993835 288.133698,773.013123 
	C271.309692,773.058411 254.485580,773.079651 237.661514,773.095825 
	C231.347809,773.101929 230.876907,772.635437 230.870178,766.254333 
	C230.846680,743.932922 230.713913,721.610413 230.894745,699.290527 
	C230.968063,690.239014 230.844315,681.316406 227.232101,672.819397 
	C225.614838,669.015015 227.083420,667.776978 230.980042,667.797607 
	C254.633575,667.922729 278.289062,667.781128 301.941284,668.004700 
	C315.574036,668.133545 324.635529,674.194397 326.804626,684.582581 
	C328.411713,692.279236 328.280029,700.154297 327.025391,707.928467 
	C326.228058,712.868835 322.268677,715.705688 318.524902,718.980042 
	C320.958130,721.543457 324.260559,722.856323 326.059875,726.183960 
M295.660400,743.041809 
	C295.664703,741.379761 295.682678,739.717529 295.670868,738.055603 
	C295.625092,731.620605 294.480072,730.412964 288.208435,730.316101 
	C284.885040,730.264771 281.558533,730.238464 278.236298,730.319336 
	C262.983521,730.690552 265.273651,727.121948 265.203400,745.075684 
	C265.192383,747.885437 266.618835,748.868774 269.241516,748.849976 
	C276.387939,748.798889 283.534943,748.806335 290.681610,748.829163 
	C294.012787,748.839783 295.505005,747.083374 295.660400,743.041809 
M265.160095,697.721069 
	C265.159943,699.051208 265.285950,700.395691 265.136902,701.708923 
	C264.605133,706.394714 266.431702,708.447632 271.316132,708.061584 
	C275.281311,707.748108 279.291840,707.999878 283.282227,708.016357 
	C294.390778,708.062256 294.440491,707.905396 293.919617,696.962524 
	C293.739471,693.177917 292.077942,691.464294 288.441467,691.456360 
	C282.456207,691.443359 276.470856,691.457153 270.485626,691.480896 
	C266.963348,691.494873 264.662231,692.767151 265.160095,697.721069 
z"/>
<path fill="#000000" opacity="1.000000" stroke="none" 
	d="
M473.527313,701.114258 
	C475.265076,704.168945 478.213196,704.014893 480.701263,704.609680 
	C492.343231,707.392822 504.053223,709.893127 515.684204,712.719727 
	C528.540344,715.844177 534.237427,723.109985 534.207031,736.249695 
	C534.192078,742.726562 534.860535,749.239746 533.468750,755.676575 
	C531.595886,764.337952 524.985840,771.321411 516.205322,772.141052 
	C496.955322,773.938049 477.590363,774.091187 458.368866,772.252563 
	C445.070099,770.980469 438.712646,762.904297 438.713562,749.613037 
	C438.714508,735.500732 436.280640,737.223145 450.933899,737.030823 
	C456.263428,736.960938 461.596436,737.077026 466.923767,736.944580 
	C470.722137,736.850159 472.631866,738.434265 472.193939,742.292603 
	C471.621704,747.334351 473.765350,749.185120 478.782867,748.848755 
	C483.923737,748.504150 489.105286,748.765686 494.269012,748.761963 
	C497.042236,748.760010 499.860321,748.776367 499.859955,744.856750 
	C499.859558,741.186707 501.275391,736.866394 495.741547,735.631348 
	C486.330811,733.531067 476.936096,731.358337 467.516296,729.300049 
	C461.496521,727.984680 455.439301,726.810364 449.904755,723.945435 
	C443.897980,720.835999 440.275787,716.199341 439.461395,709.185852 
	C438.510651,700.998291 438.850891,692.883118 439.813507,684.783020 
	C440.731323,677.059631 447.906708,670.485535 457.004150,668.853455 
	C460.588745,668.210388 464.279541,667.779907 467.911285,667.845642 
	C483.212219,668.122192 498.555084,666.677551 513.811096,668.689758 
	C524.407104,670.087402 530.813843,676.744324 532.158325,687.356323 
	C533.992371,701.832275 533.670410,702.197876 519.305847,702.169739 
	C514.308838,702.159973 509.309113,702.087402 504.315735,702.226746 
	C500.984558,702.319702 499.351196,701.130005 499.553986,697.599731 
	C499.819092,692.984680 497.622345,690.945984 492.884613,691.242615 
	C488.570435,691.512756 484.226105,691.277100 479.895508,691.314758 
	C473.487213,691.370422 473.176025,691.709656 473.263855,698.236694 
	C473.275024,699.067871 473.363617,699.898010 473.527313,701.114258 
z"/>
<path fill="#000000" opacity="1.000000" stroke="none" 
	d="
M416.974426,693.904907 
	C404.823547,693.749207 393.167938,693.529297 381.511444,693.461121 
	C375.602570,693.426514 375.603210,693.919373 375.231049,700.802917 
	C374.962433,705.771362 376.851898,707.089294 381.545044,706.967712 
	C392.199677,706.691528 402.869141,707.026367 413.527130,706.824280 
	C417.837982,706.742554 419.584564,708.237854 419.335419,712.615417 
	C419.070831,717.264832 419.049011,721.955688 419.344025,726.601562 
	C419.631317,731.125549 417.648560,732.335693 413.446869,732.250000 
	C402.789154,732.032532 392.120148,732.325439 381.464783,732.054321 
	C376.642883,731.931702 374.687531,733.676941 375.307983,738.440369 
	C375.478668,739.750793 375.441040,741.112976 375.312042,742.433167 
	C374.946991,746.169250 376.858948,747.580750 380.308899,747.563232 
	C393.966248,747.493958 407.630157,747.666199 421.278503,747.281860 
	C429.887909,747.039368 430.234711,746.996582 430.257141,755.769836 
	C430.267822,759.934570 430.144775,764.102905 430.281158,768.263123 
	C430.391174,771.618469 429.086914,773.111816 425.624298,773.102722 
	C399.136536,773.032776 372.648499,773.013794 346.160767,773.076721 
	C342.298859,773.085876 340.854828,771.496216 340.865387,767.686829 
	C340.951965,736.367798 340.992645,705.048340 340.885651,673.729553 
	C340.869781,669.085327 342.720337,667.770325 347.155914,667.793945 
	C372.810089,667.930725 398.465942,667.911621 424.120026,667.749634 
	C428.551392,667.721680 430.572601,668.949951 430.276825,673.693787 
	C429.956116,678.837891 430.103516,684.020935 430.250732,689.181152 
	C430.349701,692.649353 428.797821,694.018311 425.465454,693.903748 
	C422.803223,693.812195 420.134949,693.896973 416.974426,693.904907 
z"/>
<path fill="#000000" opacity="1.000000" stroke="none" 
	d="
M797.165283,763.919556 
	C798.037048,766.779419 799.438416,769.112854 799.436401,771.599426 
	C798.008789,773.132874 796.441162,772.965942 794.978149,772.973450 
	C786.313293,773.018127 777.646973,772.930420 768.983887,773.064636 
	C765.612366,773.116882 763.732727,771.741333 762.833252,768.529480 
	C761.666626,764.363464 760.210083,760.278992 759.026978,756.117126 
	C758.293518,753.536926 756.968445,752.205994 754.096497,752.240662 
	C744.766113,752.353333 735.432800,752.367798 726.102600,752.252869 
	C723.065857,752.215515 721.480347,753.612671 720.645752,756.306152 
	C719.413879,760.281616 717.980225,764.204651 716.964905,768.233826 
	C716.093018,771.694153 714.308289,773.173767 710.645142,773.093323 
	C702.651062,772.917786 694.648987,773.142029 686.651489,773.067627 
	C681.641235,773.020996 681.170654,772.278687 682.900330,767.351868 
	C691.394409,743.157349 699.718445,718.899475 708.585449,694.841980 
	C711.195801,687.759644 711.842163,681.282349 709.244568,674.131775 
	C707.052612,668.097778 707.597229,667.795410 714.216675,667.801636 
	C728.047485,667.814514 741.882202,668.009338 755.706909,667.722839 
	C760.573914,667.622070 762.753174,669.484741 764.351318,673.929932 
	C775.109619,703.854675 786.116760,733.690002 797.165283,763.919556 
M732.333679,727.600586 
	C738.020508,727.604492 743.738342,728.091125 750.159363,727.238525 
	C746.783142,716.543030 743.693054,706.754028 740.603027,696.965027 
	C740.052063,696.982239 739.501160,696.999451 738.950195,697.016663 
	C736.111755,706.459900 733.256348,715.898071 730.464111,725.354858 
	C730.215820,726.195862 730.785828,726.935974 732.333679,727.600586 
z"/>
<path fill="#000000" opacity="1.000000" stroke="none" 
	d="
M602.000000,667.819397 
	C610.999329,667.817200 619.500610,667.919373 627.997192,667.764709 
	C631.871033,667.694214 633.412903,669.205688 633.255066,673.088501 
	C633.052124,678.079773 632.955200,683.102234 633.281555,688.080505 
	C633.596680,692.888245 631.371460,694.173340 627.051819,694.026611 
	C621.058960,693.823059 615.045410,694.157654 609.058289,693.881226 
	C604.507080,693.671082 602.985901,695.329651 603.030701,699.935242 
	C603.246460,722.098389 603.172974,744.264465 603.174927,766.429504 
	C603.175476,772.895447 602.967712,773.076416 596.362122,773.098022 
	C589.362732,773.120850 582.363159,773.111328 575.363708,773.103943 
	C569.105652,773.097290 568.809265,772.825195 568.802429,766.706726 
	C568.777649,744.541687 568.645752,722.375549 568.855225,700.212585 
	C568.901184,695.350464 567.268799,693.724548 562.545959,693.958679 
	C556.394287,694.263733 550.214355,693.951599 544.052979,694.127808 
	C540.306458,694.234924 538.516541,693.012695 538.705811,688.966675 
	C538.947021,683.812012 538.968994,678.624451 538.676147,673.474365 
	C538.423340,669.029663 540.213501,667.719666 544.504639,667.757080 
	C563.501770,667.922974 582.501343,667.822754 602.000000,667.819397 
z"/>
<path fill="#000000" opacity="1.000000" stroke="none" 
	d="
M662.979370,773.067261 
	C657.320923,773.054688 652.156799,772.979858 646.995178,773.064819 
	C643.515747,773.122009 641.785950,771.789429 641.791565,768.090698 
	C641.839783,736.111877 641.825562,704.132935 641.778625,672.154053 
	C641.774414,669.285950 642.806335,667.772339 645.819519,667.790161 
	C654.313599,667.840454 662.808777,667.907104 671.301880,667.815002 
	C675.224304,667.772522 675.383301,670.189026 675.379333,673.095764 
	C675.336609,704.741638 675.293457,736.387634 675.377869,768.033264 
	C675.387634,771.681396 674.130737,773.274719 670.468506,773.068054 
	C668.144714,772.936890 665.806519,773.062500 662.979370,773.067261 
z"/>
<path fill="#000000" opacity="1.000000" stroke="none" 
	d="
M539.708008,807.011047 
	C539.714722,804.187805 539.653870,801.858337 539.746582,799.534973 
	C539.828308,797.485291 539.067810,794.840271 542.083557,794.243164 
	C545.029175,793.659973 548.149597,793.268005 550.250671,796.248535 
	C552.433655,799.345215 554.500061,802.524170 557.819397,805.475159 
	C557.819397,803.089355 557.888184,800.701172 557.802612,798.318420 
	C557.687500,795.112915 559.218872,793.843811 562.340271,793.890503 
	C565.334290,793.935364 567.077454,795.017029 567.069153,798.254517 
	C567.052063,804.902283 567.144226,811.550476 567.091858,818.197693 
	C567.076721,820.122498 567.374207,822.564392 564.708374,823.017639 
	C562.141846,823.453918 559.338745,823.963623 557.472778,821.202820 
	C555.064331,817.639343 552.648499,814.080750 549.128784,810.546265 
	C549.128784,813.380676 549.089600,816.215759 549.139038,819.049316 
	C549.196594,822.347229 547.399902,823.268982 544.393127,823.278870 
	C541.323730,823.288879 539.695007,822.248657 539.757385,818.974548 
	C539.830261,815.153870 539.731506,811.329956 539.708008,807.011047 
z"/>
<path fill="#000000" opacity="1.000000" stroke="none" 
	d="
M686.258911,798.710449 
	C687.973450,801.130371 688.996948,803.629211 691.261292,805.467529 
	C692.374939,803.194580 691.892151,801.023743 691.846558,798.967468 
	C691.764465,795.264771 693.522095,793.943665 697.021606,793.997375 
	C700.556396,794.051636 701.536133,795.842224 701.427490,799.101196 
	C701.216980,805.415283 701.305847,811.738708 701.179626,818.056458 
	C701.141724,819.954956 701.698730,822.433716 699.038513,823.015747 
	C696.435486,823.585327 693.732056,823.726196 691.754822,821.187073 
	C689.227539,817.941528 687.534546,814.057373 684.080078,810.949158 
	C682.726501,813.371521 683.361633,815.708618 683.357056,817.878662 
	C683.350464,821.033325 683.068787,823.284119 678.906067,823.340271 
	C674.569702,823.398804 673.970276,821.099243 674.015686,817.695862 
	C674.095581,811.709412 673.994873,805.720093 674.117371,799.734985 
	C674.159546,797.674927 673.737671,795.055054 676.527466,794.330872 
	C679.299255,793.611389 682.181641,793.396118 684.346558,795.953735 
	C684.987976,796.711548 685.493042,797.584839 686.258911,798.710449 
z"/>
<path fill="#000000" opacity="1.000000" stroke="none" 
	d="
M249.296494,811.700195 
	C249.255676,814.186523 249.167099,816.355774 249.250732,818.518372 
	C249.365646,821.490601 248.472534,823.216125 245.058548,823.246216 
	C241.746811,823.275452 240.045883,822.147522 240.063950,818.681458 
	C240.096970,812.349060 239.967529,806.015503 240.021561,799.683472 
	C240.039307,797.603394 239.611588,795.011841 242.499771,794.359558 
	C245.321228,793.722351 248.240448,793.606384 250.250778,796.294861 
	C252.515244,799.323059 254.643127,802.453430 257.984039,805.326904 
	C257.984039,803.093811 258.029724,800.859497 257.973145,798.627808 
	C257.891754,795.417725 259.613373,794.200867 262.604614,794.103149 
	C265.834625,793.997498 267.084076,795.593689 267.068237,798.673828 
	C267.035645,805.006592 267.163849,811.340454 267.094299,817.672424 
	C267.071655,819.732727 267.562317,822.387512 264.648285,822.994080 
	C261.812561,823.584412 259.068024,823.512451 257.188324,820.508240 
	C255.016937,817.037964 253.132980,813.317627 249.863220,810.653809 
	C249.827087,810.624390 249.576294,810.790649 249.488327,810.911255 
	C249.395020,811.039062 249.376617,811.221619 249.296494,811.700195 
z"/>
<path fill="#000000" opacity="1.000000" stroke="none" 
	d="
M770.223633,819.681458 
	C768.014709,824.159119 763.736877,824.635925 760.845520,820.962891 
	C758.190125,817.589539 755.856323,813.963013 752.250183,810.509094 
	C752.250183,813.509460 752.197388,816.511047 752.264526,819.509949 
	C752.336670,822.730835 750.434937,823.305420 747.744446,823.285828 
	C745.109436,823.266663 743.073608,822.761047 743.049255,819.581848 
	C742.999695,813.104675 742.896362,806.626770 742.960327,800.150574 
	C742.981934,797.964600 742.227295,795.072632 745.386475,794.361572 
	C748.492737,793.662537 751.733765,793.411438 753.896729,796.653320 
	C756.061279,799.897583 758.226440,803.141479 761.576477,806.035583 
	C761.576477,803.266541 761.650330,800.494934 761.557617,797.729004 
	C761.443481,794.324951 763.704712,794.098877 766.187256,794.076721 
	C768.694580,794.054260 770.327942,794.897339 770.301697,797.790894 
	C770.236938,804.932495 770.263367,812.074951 770.223633,819.681458 
z"/>
<path fill="#000000" opacity="1.000000" stroke="none" 
	d="
M275.270020,823.192505 
	C272.085144,823.209717 270.895660,821.797302 270.907990,819.151001 
	C270.939819,812.323181 270.981873,805.494751 270.929382,798.667358 
	C270.905548,795.566589 272.254974,794.002014 275.392578,794.043457 
	C280.053040,794.104980 284.727509,793.949402 289.370239,794.265259 
	C293.854675,794.570374 296.277649,797.233459 296.309448,801.818542 
	C296.341827,806.481567 296.292450,811.145081 296.306244,815.808289 
	C296.320312,820.560425 293.696655,822.872070 289.223572,823.086548 
	C284.736450,823.301697 280.233124,823.178467 275.270020,823.192505 
M286.899323,812.067505 
	C286.874146,809.598145 286.947021,807.122742 286.794281,804.661316 
	C286.659943,802.495667 285.053680,802.130249 283.239990,802.184448 
	C281.488586,802.236877 280.419800,803.018372 280.382294,804.855408 
	C280.335236,807.162048 280.312622,809.469971 280.333160,811.776917 
	C280.347748,813.417236 280.167786,815.273560 282.478088,815.571594 
	C284.574799,815.842163 286.543579,815.718689 286.899323,812.067505 
z"/>
<path fill="#000000" opacity="1.000000" stroke="none" 
	d="
M570.695068,804.046143 
	C570.911804,794.238586 568.943054,793.986572 580.056702,794.006958 
	C581.716675,794.009949 583.382141,794.088806 585.035828,793.985107 
	C596.218201,793.284302 597.850586,800.735779 595.093018,809.138428 
	C593.711304,813.348816 593.168884,816.346375 595.494385,819.917114 
	C595.898682,820.538025 595.875854,821.437012 596.031677,822.125244 
	C587.103577,827.138184 585.933472,817.728760 581.915771,814.416748 
	C579.933167,815.554688 580.212341,817.027771 580.260559,818.276489 
	C580.396118,821.785278 579.085693,823.353210 575.317749,823.323242 
	C571.354004,823.291748 570.611938,821.304443 570.705261,817.981934 
	C570.831116,813.503967 570.709473,809.019104 570.695068,804.046143 
M584.011536,806.681641 
	C586.266846,806.403015 586.633728,805.012573 586.019470,803.143372 
	C585.525085,801.639160 584.296387,801.331238 582.869507,801.375671 
	C581.290100,801.424927 580.457764,802.173279 580.357361,803.769104 
	C580.224304,805.884644 581.265625,806.785156 584.011536,806.681641 
z"/>
<path fill="#000000" opacity="1.000000" stroke="none" 
	d="
M798.262817,806.803833 
	C799.907104,810.500732 799.319946,814.021545 799.122986,817.468933 
	C798.953613,820.434204 797.102417,822.302979 794.136047,822.916748 
	C793.487305,823.050964 792.803711,823.206177 792.158569,823.138611 
	C786.563843,822.552612 779.367615,826.071594 775.771729,820.429932 
	C771.651611,813.965942 773.252014,805.894958 774.756287,798.600403 
	C775.750427,793.779297 780.380981,793.885132 784.177246,794.084290 
	C789.233704,794.349487 795.178284,792.276245 798.519348,798.274353 
	C799.493958,800.023987 800.035645,802.391296 798.173950,803.787292 
	C795.896301,805.495239 792.914612,805.750366 790.819702,803.635986 
	C789.097229,801.897522 787.488770,800.781006 785.205444,801.643555 
	C782.481873,802.672424 783.467224,805.261475 783.290588,807.294434 
	C783.175781,808.615845 783.329834,809.958313 783.270630,811.287231 
	C783.070312,815.785828 785.092773,816.481689 788.679443,814.685730 
	C789.187744,813.029175 787.755005,813.031860 787.068420,812.527527 
	C785.403625,811.304932 785.594421,809.639587 785.943481,808.009460 
	C786.284729,806.416016 787.721436,806.088928 789.057556,806.038940 
	C792.019775,805.928162 795.030090,805.207458 798.262817,806.803833 
z"/>
<path fill="#000000" opacity="1.000000" stroke="none" 
	d="
M389.609314,817.975647 
	C389.686005,821.862366 388.255280,823.448792 384.501404,823.249146 
	C380.469391,823.034668 380.704010,820.420532 380.660492,817.688843 
	C380.559845,811.374146 380.459442,805.058472 380.252960,798.746765 
	C380.162201,795.972534 381.045471,794.187500 384.069977,794.115601 
	C389.054382,793.997009 394.035980,793.782532 399.015747,794.380676 
	C403.454590,794.913940 405.489655,797.383301 405.316040,801.761597 
	C405.168030,805.494324 406.230164,809.440491 403.014923,812.602234 
	C401.671173,813.923584 402.941467,815.406006 403.450500,816.755615 
	C404.138428,818.579346 405.694977,820.108215 405.349976,822.319519 
	C396.937714,826.714294 395.615173,817.981934 391.836548,814.628479 
	C389.900146,815.216125 389.954468,816.506165 389.609314,817.975647 
M392.094482,806.732666 
	C393.795105,806.753662 395.557526,806.815186 395.783417,804.487610 
	C395.899170,803.294800 395.732239,802.052490 394.374573,801.642456 
	C392.931976,801.206787 391.257324,800.944092 390.389587,802.527039 
	C389.576019,804.011230 389.202698,805.723328 392.094482,806.732666 
z"/>
<path fill="#000000" opacity="1.000000" stroke="none" 
	d="
M332.807404,812.760803 
	C335.112061,812.568481 336.180267,813.809631 337.508728,814.857422 
	C339.130554,816.136719 341.099152,816.150208 343.174103,814.735718 
	C341.105835,811.479309 337.714539,812.219727 335.050049,811.500610 
	C329.327820,809.956299 327.356201,807.487366 327.827637,801.497192 
	C328.245758,796.184570 330.315521,794.299561 336.411530,794.033142 
	C340.228943,793.866211 344.097107,793.690369 347.811005,794.848083 
	C350.218811,795.598694 351.722656,797.406372 352.112000,799.886047 
	C352.344635,801.367432 352.217468,803.155396 350.535614,803.727417 
	C348.185486,804.526855 345.571320,805.160645 343.532410,803.069824 
	C341.762634,801.255066 340.089844,800.737854 337.728058,802.434937 
	C339.414520,805.639709 342.685944,804.883301 345.143341,805.599609 
	C351.799469,807.539551 354.606689,813.029419 351.846497,819.411499 
	C351.586945,820.011475 351.210846,820.593689 350.771881,821.078247 
	C347.650238,824.525208 331.999512,824.153748 329.137482,820.590820 
	C327.781586,818.902771 327.491302,816.942932 327.931458,814.927917 
	C328.471497,812.455872 330.619507,812.928528 332.807404,812.760803 
z"/>
<path fill="#000000" opacity="1.000000" stroke="none" 
	d="
M525.470581,815.156494 
	C527.880188,809.813171 526.533569,804.441162 526.780090,799.187622 
	C526.937012,795.841553 527.568787,793.847534 531.494568,793.847961 
	C535.322571,793.848328 536.380127,795.613342 536.283875,799.087402 
	C536.136292,804.414917 536.300476,809.750427 536.249634,815.081726 
	C536.237061,816.393860 536.297852,817.948425 535.656738,818.973877 
	C531.165833,826.158142 523.968872,822.775330 517.869385,823.037048 
	C513.661377,823.217651 511.220764,820.095764 511.086731,815.864563 
	C510.896912,809.872864 511.009064,803.871399 511.011047,797.874084 
	C511.012207,794.428772 513.268311,793.900757 516.064697,793.890137 
	C518.924133,793.879211 520.396729,794.981323 520.328369,798.028931 
	C520.231201,802.358704 520.393677,806.693909 520.317993,811.024597 
	C520.258545,814.426392 521.560120,816.106201 525.470581,815.156494 
z"/>
<path fill="#000000" opacity="1.000000" stroke="none" 
	d="
M599.677490,819.782593 
	C599.506165,812.650940 599.406006,805.998108 599.192200,799.348938 
	C599.084229,795.993286 600.057495,793.893250 603.911255,793.989258 
	C608.401428,794.101135 612.897339,794.010254 617.390381,793.971619 
	C620.084595,793.948486 621.889099,794.796875 621.972839,797.895264 
	C622.055908,800.969421 620.434631,801.917419 617.649719,802.045166 
	C615.788574,802.130615 613.624146,801.419556 612.002502,803.497742 
	C613.856079,806.087769 619.932556,802.844727 619.255371,808.747314 
	C618.502869,815.305908 612.231812,810.273560 609.647095,813.608337 
	C611.131409,816.697693 614.094055,815.454529 616.439087,815.616272 
	C619.150696,815.803345 621.983276,815.403931 622.006836,819.448120 
	C622.030701,823.550659 619.147278,823.219116 616.448486,823.226074 
	C612.287903,823.236755 608.127197,823.255615 603.966675,823.244080 
	C601.874634,823.238281 599.852905,823.072815 599.677490,819.782593 
z"/>
<path fill="#000000" opacity="1.000000" stroke="none" 
	d="
M435.850525,793.915100 
	C438.314209,793.985413 440.453979,794.040527 441.268646,796.378784 
	C444.260101,804.964966 447.168549,813.580017 450.243103,822.578796 
	C445.473022,823.305359 441.554413,824.824219 439.213806,819.235413 
	C437.969147,816.263550 431.624298,816.463501 430.482025,819.458069 
	C428.311676,825.147583 424.408813,823.012329 419.790344,822.657898 
	C421.665161,817.062378 423.325226,812.067566 425.014618,807.082703 
	C425.869263,804.561035 427.070526,802.117004 427.595276,799.532288 
	C428.502838,795.061768 431.111633,793.412354 435.850525,793.915100 
z"/>
<path fill="#000000" opacity="1.000000" stroke="none" 
	d="
M324.429260,807.097534 
	C324.411591,810.236084 324.424255,812.895447 324.356995,815.552856 
	C324.327789,816.706665 324.509186,818.092712 323.955963,818.970581 
	C319.451172,826.119080 312.292053,822.739685 306.211182,822.980652 
	C301.958130,823.149170 299.749847,820.043640 299.745392,815.711304 
	C299.739441,809.895691 299.866425,804.077942 299.744141,798.265198 
	C299.672546,794.861877 301.466156,793.998291 304.407349,794.008606 
	C307.376678,794.018982 309.163971,795.055908 309.135925,798.336792 
	C309.097626,802.822510 309.192413,807.309204 309.203583,811.795532 
	C309.209106,814.019714 309.626892,815.772156 312.469055,815.648376 
	C315.205658,815.529236 315.662354,813.805359 315.652985,811.582520 
	C315.635437,807.428467 315.819519,803.267029 315.628143,799.122192 
	C315.464020,795.567322 316.690399,793.918823 320.433014,793.982117 
	C324.158844,794.045166 324.863800,795.967163 324.567383,799.147034 
	C324.336914,801.620056 324.460785,804.126221 324.429260,807.097534 
z"/>
<path fill="#000000" opacity="1.000000" stroke="none" 
	d="
M661.909180,793.967773 
	C664.381531,794.035034 666.387268,793.986755 668.361389,794.213928 
	C670.645508,794.476685 671.198730,796.125732 671.198364,798.186279 
	C671.198059,800.375183 670.286682,801.556152 668.052612,801.870544 
	C665.414062,802.241821 662.469910,801.201904 659.998352,803.206970 
	C661.272522,805.351013 663.136108,804.672546 664.664490,804.726868 
	C667.466797,804.826660 668.422913,806.203552 668.360107,808.860291 
	C668.296814,811.539001 666.794373,812.176575 664.490784,812.273193 
	C662.491272,812.357056 660.250427,811.788635 658.345520,813.573669 
	C659.947693,816.368408 662.334778,815.391602 664.306152,815.657227 
	C667.138977,816.039062 671.260559,814.326050 671.160706,819.611633 
	C671.058533,825.020935 666.799316,822.948425 664.085144,823.182739 
	C660.616333,823.482117 657.097229,823.139893 653.609558,823.294556 
	C649.905457,823.458984 648.578308,821.741943 648.655212,818.195496 
	C648.795959,811.708496 648.860779,805.213623 648.696228,798.728699 
	C648.606934,795.208618 650.153992,793.930176 653.442017,794.012268 
	C656.102234,794.078796 658.766235,793.992432 661.909180,793.967773 
z"/>
<path fill="#000000" opacity="1.000000" stroke="none" 
	d="
M722.653931,793.989990 
	C725.650208,793.996460 727.815674,794.524109 728.012390,797.645874 
	C728.217651,800.901550 726.318848,802.084045 723.411865,802.168335 
	C720.726135,802.246338 720.169128,803.934387 720.179443,806.190491 
	C720.199219,810.508484 720.116028,814.827087 720.155640,819.144775 
	C720.186218,822.481018 718.344360,823.317139 715.365967,823.293518 
	C712.360596,823.269836 710.634766,822.365723 710.719299,819.021301 
	C710.824219,814.872192 710.629333,810.715698 710.728394,806.566284 
	C710.793701,803.828918 710.092346,802.010803 706.942383,802.043945 
	C704.013489,802.074768 702.734070,800.482178 702.838928,797.648071 
	C702.959229,794.395935 705.324524,794.072144 707.748352,794.033997 
	C712.563721,793.958252 717.380920,793.995117 722.653931,793.989990 
z"/>
<path fill="#000000" opacity="1.000000" stroke="none" 
	d="
M371.763062,793.959473 
	C374.174713,794.125488 376.357727,793.630005 377.714142,795.582092 
	C379.378510,797.977539 377.943817,801.697388 374.860809,801.921814 
	C370.567230,802.234314 370.213348,804.693481 370.321808,808.008850 
	C370.441406,811.664490 370.237122,815.331482 370.380280,818.985474 
	C370.510834,822.317871 368.899872,823.310120 365.822968,823.278503 
	C362.889618,823.248352 361.553101,822.107361 361.609528,819.124512 
	C361.688171,814.967834 361.537476,810.807007 361.597290,806.649597 
	C361.636475,803.924500 360.884949,802.060974 357.728760,802.153320 
	C354.976898,802.233765 353.248352,801.222412 353.327240,798.131470 
	C353.412689,794.782715 355.476776,794.026367 358.318054,794.038879 
	C362.642578,794.057983 366.967499,793.990112 371.763062,793.959473 
z"/>
<path fill="#000000" opacity="1.000000" stroke="none" 
	d="
M624.789490,817.806274 
	C624.795166,811.331970 624.873291,805.335938 624.784973,799.342346 
	C624.736694,796.069092 625.421143,793.853394 629.401184,793.903076 
	C633.117981,793.949585 634.404846,795.674133 634.246948,799.183105 
	C634.097351,802.506714 634.483215,805.867249 634.170105,809.167603 
	C633.713623,813.979004 635.676331,815.975464 640.414062,815.670410 
	C641.883057,815.575806 643.499817,815.598755 644.834961,816.118164 
	C646.809448,816.886292 646.247864,818.886475 646.196777,820.487305 
	C646.127869,822.649597 644.647278,823.224304 642.787415,823.227600 
	C638.457825,823.235229 634.123901,823.110962 629.799988,823.267456 
	C626.189758,823.398132 624.473694,821.945923 624.789490,817.806274 
z"/>
<path fill="#000000" opacity="1.000000" stroke="none" 
	d="
M466.286377,815.637634 
	C467.725189,815.658325 468.720795,815.708374 469.715027,815.688904 
	C472.226593,815.639954 473.267456,816.865234 473.256805,819.353088 
	C473.246643,821.729309 472.460327,823.198547 469.868683,823.199707 
	C465.058716,823.201843 460.248657,823.194885 455.438782,823.219482 
	C452.893372,823.232544 451.866119,821.833191 451.867493,819.470581 
	C451.871582,812.338379 451.907349,805.206238 451.903961,798.074036 
	C451.902344,794.685364 454.022095,794.020935 456.841522,793.962402 
	C460.006012,793.896851 461.353241,795.311340 461.274841,798.466614 
	C461.171906,802.610779 461.394012,806.764709 461.238037,810.905457 
	C461.111359,814.268799 462.366028,815.946472 466.286377,815.637634 
z"/>
<path fill="#000000" opacity="1.000000" stroke="none" 
	d="
M487.641632,825.670288 
	C487.412140,815.235840 487.190033,805.253601 487.024872,795.270386 
	C486.979858,792.549500 486.857422,789.779541 490.925018,789.764282 
	C494.655884,789.750244 495.280396,791.924866 495.265442,794.963867 
	C495.217133,804.786011 495.252930,814.608521 495.247040,824.430847 
	C495.245911,826.339050 495.090698,828.231018 492.672729,828.597351 
	C490.477936,828.929810 488.211578,829.216370 487.641632,825.670288 
z"/>
<path fill="#000000" opacity="1.000000" stroke="none" 
	d="
M418.227966,814.920654 
	C418.101532,822.960632 417.629272,823.535461 412.747437,823.287048 
	C410.011444,823.147827 408.838989,821.886902 408.837860,819.271484 
	C408.834808,812.127808 408.853394,804.983887 408.804657,797.840454 
	C408.780182,794.252502 411.120483,793.958435 413.836670,793.975891 
	C416.548798,793.993347 418.296814,794.850159 418.249420,797.985596 
	C418.166565,803.467102 418.228546,808.950806 418.227966,814.920654 
z"/>
<path fill="#000000" opacity="1.000000" stroke="none" 
	d="
M227.008606,799.338501 
	C226.744308,795.085266 228.825928,794.062317 232.238235,794.077576 
	C236.095016,794.094788 236.371307,796.424927 236.330215,799.365417 
	C236.239746,805.837952 236.216888,812.312927 236.287781,818.785522 
	C236.321579,821.871155 235.181824,823.284607 231.909470,823.299561 
	C228.586014,823.314819 226.975616,822.203491 227.025543,818.719177 
	C227.115936,812.413086 227.020340,806.104431 227.008606,799.338501 
z"/>
<path fill="#000000" opacity="1.000000" stroke="none" 
	d="
M729.842773,814.912842 
	C729.812866,809.282715 729.875061,804.136475 729.737427,798.995544 
	C729.639160,795.321289 731.419495,794.013062 734.888367,793.971863 
	C738.491333,793.929199 739.383118,795.786438 739.320007,798.984802 
	C739.195496,805.288147 739.227478,811.596497 739.309692,817.901306 
	C739.350830,821.055420 738.997314,823.306885 734.861633,823.357544 
	C730.709290,823.408325 729.608887,821.480042 729.862488,817.887329 
	C729.920715,817.062256 729.857056,816.228638 729.842773,814.912842 
z"/>
</svg>